<?xml version="1.0" encoding="utf-8"?>
<!-- Generator: Adobe Illustrator 16.0.0, SVG Export Plug-In . SVG Version: 6.00 Build 0)  -->
<!DOCTYPE svg PUBLIC "-//W3C//DTD SVG 1.1//EN" "http://www.w3.org/Graphics/SVG/1.1/DTD/svg11.dtd">
<svg version="1.1" id="Layer_1" xmlns="http://www.w3.org/2000/svg" xmlns:xlink="http://www.w3.org/1999/xlink" x="0px" y="0px"
	 width="300px" height="200px" viewBox="0 0 400 200" enable-background="new 0 0 400 200" xml:space="preserve">
<g>
	<g>
		<path fill="#52A484" d="M214.965,141.613c-40.156,0-46.545,52.907-37.76,56.697c8.787,3.79,24.042-33.346,48.816-20.928
			C239.392,184.08,226.604,141.613,214.965,141.613z"/>
		<path fill="#52A484" d="M257.526,141.613c40.154,0,46.545,52.907,37.759,56.697s-24.043-33.346-48.817-20.928
			C233.104,184.08,245.887,141.613,257.526,141.613z"/>
	</g>
	<g>
		<polygon fill="#52A484" points="145.325,197.519 106.488,197.519 111.34,175.921 141.164,175.921 		"/>
		<g>
			<g>
				<path fill="#5FBD97" d="M166.412,135.375c0,0-22.894-2.742-38.628-2.742c-17.163,0-30.698,1.154-41.35,3.242
					c-0.337-1.274,11.013,45.56,39.921,45.56C155.264,181.435,166.412,135.375,166.412,135.375z"/>
				<path fill="#5FBD97" d="M148.203,20.393C139.26,8.801,130.196,1.822,126.417,1.822c-3.778,0-12.841,6.979-21.782,18.571
					c6.923,1.016,14.223,1.571,21.782,1.571C133.977,21.964,141.279,21.409,148.203,20.393z"/>
				<path fill="#ED6245" d="M127.844,122.176c15.735,0,28.417,0.973,38.628,2.742c1.327-5.124,2.362-10.544,3.068-16.19
					c0.005-0.039,0.009-0.076,0.014-0.113c0.167-1.345,0.314-2.703,0.442-4.072c0.01-0.104,0.02-0.21,0.028-0.315
					c0.121-1.318,0.225-2.648,0.309-3.99c0.008-0.125,0.016-0.25,0.023-0.375c0.082-1.349,0.145-2.708,0.189-4.078
					c0.003-0.101,0.007-0.199,0.01-0.299c0.044-1.455,0.067-2.921,0.067-4.396c0-0.732-0.011-1.463-0.031-2.19
					c-0.006-0.238-0.019-0.476-0.027-0.715c-0.017-0.488-0.035-0.977-0.061-1.462c-0.015-0.282-0.035-0.563-0.052-0.844
					c-0.028-0.441-0.056-0.883-0.091-1.323c-0.023-0.294-0.05-0.588-0.076-0.882c-0.038-0.425-0.078-0.851-0.122-1.273
					c-0.031-0.297-0.063-0.592-0.097-0.887c-0.048-0.421-0.1-0.841-0.155-1.261c-0.037-0.291-0.076-0.583-0.116-0.874
					c-0.059-0.425-0.123-0.849-0.188-1.271c-0.043-0.279-0.085-0.559-0.131-0.837c-0.073-0.449-0.152-0.895-0.233-1.342
					c-0.044-0.247-0.086-0.494-0.133-0.74c-0.1-0.531-0.207-1.059-0.316-1.587c-0.033-0.159-0.062-0.318-0.096-0.477
					c-0.146-0.691-0.3-1.378-0.462-2.062c-0.027-0.115-0.057-0.228-0.084-0.342c-0.135-0.564-0.274-1.125-0.418-1.684
					c-0.057-0.218-0.117-0.435-0.176-0.653c-0.121-0.455-0.244-0.91-0.371-1.362c-0.067-0.239-0.138-0.478-0.208-0.715
					c-0.124-0.427-0.25-0.854-0.38-1.279c-0.075-0.246-0.151-0.49-0.229-0.735c-0.131-0.416-0.264-0.831-0.399-1.243
					c-0.079-0.242-0.158-0.483-0.239-0.723c-0.142-0.421-0.287-0.839-0.433-1.256c-0.079-0.225-0.158-0.45-0.238-0.674
					c-0.159-0.441-0.321-0.879-0.484-1.315c-0.073-0.196-0.145-0.392-0.219-0.585c-0.191-0.503-0.388-1.003-0.586-1.501
					c-0.049-0.122-0.097-0.246-0.146-0.369c-0.512-1.272-1.046-2.527-1.599-3.761c-0.025-0.055-0.05-0.109-0.075-0.164
					c-0.248-0.551-0.499-1.099-0.754-1.642c-0.061-0.13-0.123-0.257-0.183-0.386c-0.223-0.468-0.447-0.935-0.674-1.396
					c-0.073-0.151-0.148-0.301-0.223-0.45c-0.219-0.441-0.44-0.881-0.665-1.318c-0.076-0.149-0.154-0.299-0.231-0.448
					c-0.227-0.437-0.456-0.873-0.688-1.305c-0.074-0.137-0.147-0.274-0.222-0.412c-0.243-0.451-0.489-0.899-0.737-1.343
					c-0.062-0.111-0.124-0.222-0.186-0.333c-0.281-0.5-0.565-0.996-0.851-1.486c-0.027-0.049-0.056-0.098-0.083-0.145
					c-1.304-2.234-2.652-4.372-4.025-6.407c-0.021-0.032-0.044-0.063-0.066-0.096c-0.316-0.467-0.634-0.93-0.952-1.386
					c-0.038-0.055-0.076-0.109-0.114-0.163c-0.307-0.438-0.616-0.873-0.925-1.301c-0.038-0.053-0.076-0.106-0.114-0.159
					c-0.315-0.435-0.63-0.864-0.945-1.287c-0.03-0.04-0.059-0.08-0.089-0.12c-0.338-0.454-0.678-0.901-1.018-1.341
					c-0.001-0.002-0.004-0.005-0.005-0.007l0,0c-6.924,1.017-14.227,1.571-21.786,1.571c-7.559,0-14.859-0.555-21.782-1.571
					c0,0,0,0,0,0c-0.012,0.016-0.023,0.03-0.035,0.046c-0.325,0.421-0.649,0.848-0.974,1.282c-0.042,0.057-0.085,0.114-0.127,0.171
					c-0.302,0.405-0.604,0.816-0.904,1.232c-0.05,0.068-0.099,0.138-0.148,0.206c-0.296,0.411-0.591,0.826-0.886,1.247
					c-0.05,0.071-0.101,0.143-0.15,0.214c-0.307,0.439-0.611,0.882-0.915,1.332c-0.033,0.048-0.066,0.097-0.099,0.146
					c-1.366,2.026-2.708,4.154-4.006,6.377c-0.04,0.069-0.079,0.138-0.119,0.208c-0.274,0.472-0.547,0.948-0.817,1.428
					c-0.069,0.122-0.136,0.244-0.205,0.366c-0.241,0.433-0.48,0.868-0.717,1.306c-0.08,0.148-0.16,0.297-0.24,0.446
					c-0.224,0.419-0.446,0.84-0.667,1.265c-0.084,0.161-0.167,0.323-0.25,0.485c-0.218,0.425-0.434,0.852-0.647,1.283
					c-0.079,0.159-0.158,0.318-0.236,0.478c-0.221,0.447-0.438,0.9-0.653,1.354c-0.069,0.144-0.137,0.286-0.205,0.43
					c-0.247,0.525-0.489,1.054-0.729,1.587c-0.032,0.072-0.066,0.142-0.098,0.214c-0.55,1.229-1.082,2.478-1.592,3.745
					c-0.056,0.139-0.11,0.28-0.166,0.42c-0.191,0.482-0.381,0.965-0.567,1.452c-0.077,0.202-0.151,0.405-0.228,0.607
					c-0.16,0.429-0.319,0.86-0.475,1.293c-0.083,0.23-0.164,0.462-0.246,0.694c-0.144,0.41-0.285,0.82-0.425,1.233
					c-0.083,0.246-0.164,0.492-0.245,0.739c-0.134,0.407-0.265,0.816-0.393,1.225c-0.079,0.251-0.158,0.502-0.234,0.754
					c-0.127,0.418-0.251,0.836-0.374,1.257c-0.071,0.245-0.144,0.488-0.212,0.733c-0.126,0.448-0.249,0.9-0.369,1.352
					c-0.06,0.22-0.12,0.438-0.177,0.658c-0.142,0.55-0.278,1.104-0.412,1.66c-0.029,0.124-0.062,0.245-0.091,0.369
					c-0.161,0.683-0.314,1.368-0.46,2.059c-0.034,0.161-0.064,0.324-0.098,0.485c-0.109,0.524-0.215,1.048-0.314,1.576
					c-0.047,0.249-0.09,0.5-0.135,0.75c-0.08,0.445-0.159,0.89-0.232,1.338c-0.045,0.276-0.087,0.555-0.13,0.832
					c-0.066,0.424-0.13,0.848-0.188,1.274c-0.041,0.292-0.079,0.583-0.117,0.876c-0.055,0.417-0.106,0.834-0.154,1.255
					c-0.034,0.297-0.068,0.595-0.099,0.893c-0.043,0.422-0.083,0.846-0.122,1.27c-0.025,0.293-0.052,0.588-0.075,0.883
					c-0.035,0.44-0.063,0.882-0.091,1.323c-0.018,0.281-0.038,0.562-0.053,0.844c-0.025,0.486-0.044,0.974-0.061,1.462
					c-0.008,0.239-0.02,0.477-0.026,0.715c-0.02,0.728-0.031,1.458-0.031,2.19c0,1.494,0.024,2.977,0.069,4.451
					c0.003,0.111,0.008,0.223,0.012,0.336c0.045,1.376,0.109,2.743,0.192,4.1c0.009,0.139,0.017,0.277,0.026,0.415
					c0.087,1.354,0.192,2.7,0.317,4.033c0.01,0.106,0.019,0.213,0.028,0.317c0.135,1.415,0.289,2.816,0.464,4.204
					c0.001,0.009,0.002,0.017,0.003,0.026c0.181,1.427,0.383,2.839,0.605,4.236c0.003,0.02,0.006,0.038,0.01,0.058
					c0.217,1.363,0.455,2.711,0.711,4.043c0.013,0.066,0.026,0.133,0.039,0.198c0.252,1.304,0.523,2.593,0.811,3.863
					c0.013,0.058,0.026,0.114,0.039,0.171c0.299,1.311,0.616,2.605,0.953,3.88C97.146,123.331,110.681,122.176,127.844,122.176z"/>
			</g>
			<g>
				<ellipse fill="#403833" cx="126.421" cy="102.245" rx="14.123" ry="11.573"/>
				<path fill="#FFFFFF" d="M126.419,115.806c-9.125,0-16.547-6.083-16.547-13.561c0-7.479,7.423-13.563,16.548-13.563
					c9.126,0,16.549,6.085,16.549,13.563C142.971,109.721,135.546,115.806,126.419,115.806z M126.42,92.66
					c-6.447,0.001-11.695,4.299-11.694,9.585c0,5.285,5.249,9.582,11.693,9.582c6.451,0,11.696-4.297,11.696-9.582
					C138.115,96.958,132.87,92.66,126.42,92.66z"/>
			</g>
			<g>
				<ellipse fill="#403833" cx="126.417" cy="61.696" rx="19.399" ry="15.897"/>
				<path fill="#FFFFFF" d="M126.419,79.583c-12.035,0-21.828-8.023-21.827-17.886c0-9.863,9.792-17.888,21.827-17.888
					c12.033,0,21.826,8.024,21.826,17.887S138.454,79.583,126.419,79.583z M126.419,47.786c-9.36,0-16.974,6.24-16.973,13.91
					c-0.001,7.668,7.613,13.907,16.973,13.906c9.355,0,16.97-6.238,16.971-13.907C143.389,54.026,135.776,47.787,126.419,47.786z"/>
			</g>
			<path fill="#ED6245" d="M114.336,144.634c-0.107-2.445,24.56-3.48,24.162,0c-0.403,3.479-5.297,49.594-12.083,49.594
				C119.633,194.228,114.44,147.079,114.336,144.634z"/>
		</g>
	</g>
	<g>
		<path fill-rule="evenodd" clip-rule="evenodd" fill="#FFFFFF" d="M231.833,68.77l-1.779-3.54c-3.594,1.217-6.83,2.999-9.541,5.214
			l3.301,2.711c-2.279,1.863-4.117,4.088-5.376,6.563l-4.314-1.472c-1.439,2.837-2.241,5.95-2.246,9.214l4.672,0.005
			c-0.005,2.242,0.436,4.399,1.254,6.417c0.184,0.452,0.387,0.899,0.607,1.339l-4.317,1.459c1.482,2.945,3.659,5.598,6.361,7.819
			l3.308-2.706c2.274,1.867,4.988,3.376,8.008,4.405l-1.794,3.536c3.46,1.181,7.257,1.835,11.24,1.842l0.009-3.828
			c3.352,0.003,6.547-0.54,9.463-1.526l1.779,3.539c3.595-1.217,6.831-2.999,9.541-5.215l-3.3-2.71
			c2.279-1.863,4.116-4.088,5.374-6.563l4.314,1.472c1.439-2.837,2.24-5.95,2.25-9.215l-4.675-0.004
			c0.004-2.243-0.438-4.401-1.253-6.416c-0.187-0.454-0.387-0.9-0.607-1.339l4.317-1.459c-1.483-2.945-3.659-5.599-6.362-7.819
			l-3.309,2.705c-2.273-1.868-4.986-3.374-8.006-4.404l1.795-3.537c-3.462-1.181-7.259-1.836-11.242-1.841l-0.007,3.829
			C237.946,67.238,234.75,67.781,231.833,68.77z M241.278,77.69c5.28,0.008,9.759,2.818,11.337,6.713
			c0.396,0.977,0.609,2.021,0.608,3.105c-0.011,5.416-5.376,9.798-11.98,9.789c-5.282-0.005-9.761-2.816-11.338-6.712
			c-0.396-0.976-0.609-2.018-0.607-3.105C229.308,82.066,234.671,77.684,241.278,77.69z"/>
		<path fill-rule="evenodd" clip-rule="evenodd" fill="#FFFFFF" d="M216.478,21.995l-1.464-2.91c-2.956,1-5.613,2.465-7.844,4.287
			l2.713,2.229c-1.873,1.53-3.385,3.359-4.416,5.394l-3.549-1.21c-1.183,2.333-1.842,4.891-1.847,7.575l3.841,0.004
			c-0.004,1.843,0.358,3.617,1.031,5.276c0.15,0.372,0.316,0.738,0.499,1.099l-3.549,1.199c1.219,2.422,3.007,4.602,5.228,6.429
			l2.721-2.223c1.869,1.535,4.1,2.773,6.581,3.621l-1.474,2.906c2.844,0.969,5.965,1.508,9.24,1.514l0.007-3.146
			c2.754,0.001,5.381-0.443,7.777-1.255l1.464,2.909c2.956-1.001,5.614-2.465,7.842-4.286l-2.713-2.229
			c1.876-1.531,3.387-3.359,4.419-5.394l3.546,1.208c1.184-2.332,1.844-4.89,1.85-7.575l-3.843-0.004
			c0.004-1.844-0.359-3.617-1.03-5.273c-0.149-0.374-0.317-0.74-0.499-1.102l3.55-1.2c-1.221-2.42-3.008-4.601-5.229-6.425
			l-2.721,2.222c-1.868-1.534-4.1-2.772-6.582-3.62l1.475-2.907c-2.845-0.971-5.966-1.509-9.239-1.513l-0.005,3.146
			C221.5,20.737,218.874,21.183,216.478,21.995z M224.239,29.329c4.342,0.005,8.023,2.316,9.32,5.519
			c0.326,0.801,0.499,1.66,0.499,2.553c-0.009,4.451-4.418,8.053-9.847,8.047c-4.342-0.005-8.024-2.317-9.321-5.519
			c-0.324-0.803-0.501-1.66-0.499-2.552C214.4,32.925,218.809,29.324,224.239,29.329z"/>
		<path fill-rule="evenodd" clip-rule="evenodd" fill="#FFFFFF" d="M268.161,38.775l-1.021-2.031
			c-2.062,0.698-3.919,1.721-5.475,2.992l1.895,1.555c-1.309,1.068-2.363,2.345-3.083,3.764L258,44.212
			c-0.825,1.628-1.287,3.413-1.289,5.286l2.681,0.004c-0.003,1.287,0.251,2.524,0.718,3.682c0.107,0.26,0.223,0.515,0.35,0.768
			l-2.478,0.837c0.853,1.689,2.098,3.211,3.65,4.485l1.899-1.551c1.302,1.071,2.859,1.935,4.593,2.528l-1.029,2.027
			c1.985,0.676,4.163,1.054,6.449,1.056l0.004-2.195c1.924,0.001,3.757-0.31,5.43-0.876l1.021,2.031
			c2.062-0.699,3.917-1.721,5.473-2.992l-1.895-1.556c1.31-1.069,2.364-2.346,3.086-3.765l2.475,0.843
			c0.829-1.627,1.286-3.413,1.29-5.287l-2.68-0.003c0.001-1.286-0.251-2.524-0.718-3.68c-0.109-0.26-0.225-0.516-0.352-0.769
			l2.478-0.838c-0.851-1.688-2.099-3.21-3.649-4.484l-1.898,1.55c-1.305-1.072-2.861-1.935-4.594-2.527l1.03-2.028
			c-1.987-0.678-4.166-1.054-6.449-1.057L273.59,37.9C271.669,37.896,269.834,38.208,268.161,38.775z M273.579,43.893
			c3.029,0.003,5.6,1.617,6.506,3.852c0.227,0.56,0.348,1.159,0.348,1.782c-0.007,3.106-3.084,5.621-6.873,5.616
			c-3.03-0.003-5.601-1.617-6.504-3.852c-0.229-0.56-0.352-1.159-0.35-1.781C266.711,46.402,269.789,43.889,273.579,43.893z"/>
	</g>
</g>
</svg>
