<?xml version="1.0" encoding="utf-8"?>
<!-- Generator: Adobe Illustrator 16.0.0, SVG Export Plug-In . SVG Version: 6.00 Build 0)  -->
<!DOCTYPE svg PUBLIC "-//W3C//DTD SVG 1.1//EN" "http://www.w3.org/Graphics/SVG/1.1/DTD/svg11.dtd">
<svg version="1.1" id="Layer_1" xmlns="http://www.w3.org/2000/svg" xmlns:xlink="http://www.w3.org/1999/xlink" x="0px" y="0px"
	 width="200px" height="180px" viewBox="0 0 200 200" enable-background="new 0 0 200 200" xml:space="preserve">
<g>
	<path fill="#29AAE1" d="M97.414,184.433c0,4.823-4.308,8.732-9.622,8.732l0,0c-5.314,0-9.622-3.909-9.622-8.732v-57.823
		c0-4.823,4.308-8.732,9.622-8.732l0,0c5.314,0,9.622,3.909,9.622,8.732V184.433z"/>
	<path fill="#0071BB" d="M116.247,184.433c0,4.823-4.308,8.732-9.622,8.732l0,0c-5.313,0-9.622-3.909-9.622-8.732v-57.823
		c0-4.823,4.309-8.732,9.622-8.732l0,0c5.314,0,9.622,3.909,9.622,8.732V184.433z"/>
	<path fill="#FFCFC7" d="M99.541,23.191h-4.252c-5.866,0-10.62,4.314-10.62,9.638v15.2c0,4.82,3.904,8.803,8.995,9.514v2.923
		c0,1.88,1.68,3.403,3.75,3.403c2.071,0,3.75-1.523,3.75-3.403v-2.923c5.092-0.711,8.996-4.693,8.996-9.514v-15.2
		C110.16,27.506,105.404,23.191,99.541,23.191z"/>
	<path fill="#E90037" d="M116.658,116.597c0,5.323-4.754,9.638-10.619,9.638H88.79c-5.865,0-10.62-4.314-10.62-9.638v-46.29
		c0-5.323,4.755-9.638,10.62-9.638h17.25c5.865,0,10.619,4.314,10.619,9.638V116.597z"/>
	<path fill="#E90037" d="M141.353,84.535c2.05,1.86,2.05,4.876,0,6.736l0,0c-2.049,1.859-5.372,1.86-7.423-0.001L109.17,68.8
		c-2.049-1.86-2.049-4.877,0-6.735l0,0c2.05-1.86,5.373-1.861,7.424,0L141.353,84.535z"/>
	<path fill="#E90037" d="M141.353,94.011c2.05-1.86,2.05-4.877,0-6.737l0,0c-2.049-1.859-5.372-1.859-7.423,0.001l-24.76,22.472
		c-2.049,1.859-2.049,4.876,0,6.735l0,0c2.05,1.859,5.373,1.861,7.424,0L141.353,94.011z"/>
	<path fill="#E90037" d="M53.663,84.535c-2.049,1.86-2.049,4.876,0,6.736l0,0c2.05,1.859,5.372,1.86,7.422-0.001L85.845,68.8
		c2.051-1.86,2.05-4.877,0.001-6.735l0,0c-2.05-1.86-5.373-1.861-7.424,0L53.663,84.535z"/>
	<path fill="#E90037" d="M53.663,94.011c-2.049-1.86-2.049-4.877,0-6.737l0,0c2.05-1.859,5.372-1.859,7.422,0.001l24.759,22.472
		c2.051,1.859,2.05,4.876,0.001,6.735l0,0c-2.05,1.859-5.373,1.861-7.424,0L53.663,94.011z"/>
	<path fill="#E24E69" d="M104.413,52.267c0,0.677-0.604,1.226-1.351,1.226h-10.8c-0.745,0-1.35-0.549-1.35-1.226l0,0
		c0-0.677,0.605-1.225,1.35-1.225h10.8C103.809,51.042,104.413,51.59,104.413,52.267L104.413,52.267z"/>
	<path fill="#67064E" d="M111.493,33.652h-1.77h-8.046h-8.527h-7.563h-2.252c-1.599,0-2.896,1.177-2.896,2.629v6.79
		c0,1.452,1.297,2.629,2.896,2.629h9.815c1.599,0,2.896-1.177,2.896-2.629v-6.061h2.735v6.061c0,1.452,1.297,2.629,2.896,2.629
		h9.815c1.6,0,2.896-1.177,2.896-2.629v-6.79C114.39,34.829,113.093,33.652,111.493,33.652z"/>
	<ellipse fill="#67064E" cx="97.663" cy="79.433" rx="7.103" ry="6.446"/>
	<ellipse fill="#67064E" cx="97.662" cy="96.417" rx="11.611" ry="10.538"/>
	<g>
		<path d="M96.762,28.176c0,0-0.282-0.39-0.625-1.072c-0.176-0.342-0.358-0.757-0.545-1.231c-0.19-0.476-0.37-1.013-0.527-1.598
			c-0.311-1.171-0.589-2.536-0.576-3.999c0.032-1.463,0.442-3.024,0.583-4.585c0.168-1.561,0.311-3.121,0.513-4.584
			c0.179-1.463,0.377-2.829,0.544-3.999c0.346-2.341,0.632-3.902,0.632-3.902h0.482c0,0,0.288,1.561,0.632,3.902
			c0.167,1.17,0.367,2.536,0.545,3.999c0.203,1.463,0.345,3.024,0.512,4.584c0.141,1.561,0.55,3.122,0.584,4.585
			c0.013,1.463-0.267,2.828-0.577,3.999c-0.156,0.585-0.336,1.122-0.526,1.598c-0.187,0.475-0.369,0.89-0.546,1.231
			c-0.342,0.683-0.625,1.072-0.625,1.072H96.762z"/>
		<path d="M95.439,28.28c0,0-0.318-0.366-0.725-1.02c-0.208-0.326-0.43-0.726-0.661-1.184c-0.236-0.459-0.467-0.979-0.68-1.55
			c-0.421-1.142-0.83-2.479-0.958-3.938c-0.107-1.46,0.151-3.048,0.142-4.614c0.017-1.568,0.009-3.134,0.07-4.608
			c0.038-1.472,0.104-2.848,0.159-4.026c0.119-2.36,0.255-3.937,0.255-3.937l0.481-0.038c0,0,0.435,1.532,1.003,3.836
			c0.28,1.153,0.608,2.498,0.927,3.941c0.342,1.441,0.635,2.985,0.951,4.527c0.29,1.543,0.849,3.066,1.022,4.521
			c0.153,1.457,0.006,2.839-0.19,4.029c-0.1,0.597-0.227,1.144-0.372,1.634c-0.14,0.487-0.282,0.915-0.425,1.27
			c-0.274,0.707-0.518,1.118-0.518,1.118L95.439,28.28z"/>
		<path d="M94.132,28.488c0,0-0.352-0.34-0.82-0.958c-0.238-0.309-0.497-0.688-0.771-1.127c-0.279-0.439-0.56-0.938-0.826-1.489
			c-0.529-1.105-1.065-2.405-1.333-3.849c-0.247-1.446-0.142-3.047-0.302-4.606c-0.134-1.564-0.292-3.123-0.373-4.596
			c-0.104-1.469-0.168-2.846-0.228-4.024c-0.107-2.361-0.124-3.943-0.124-3.943l0.476-0.076c0,0,0.581,1.491,1.368,3.744
			c0.389,1.126,0.846,2.439,1.302,3.852c0.479,1.408,0.918,2.923,1.381,4.434c0.438,1.516,1.14,2.988,1.452,4.424
			c0.292,1.439,0.28,2.827,0.198,4.028c-0.042,0.603-0.117,1.158-0.213,1.656c-0.094,0.498-0.193,0.935-0.302,1.299
			c-0.206,0.727-0.411,1.156-0.411,1.156L94.132,28.488z"/>
		<path d="M92.85,28.799c0,0-0.383-0.31-0.909-0.89c-0.269-0.289-0.562-0.646-0.877-1.061c-0.321-0.415-0.647-0.891-0.966-1.42
			c-0.633-1.059-1.292-2.311-1.698-3.728c-0.385-1.42-0.435-3.024-0.743-4.564c-0.284-1.548-0.591-3.089-0.812-4.549
			c-0.246-1.456-0.442-2.821-0.615-3.991c-0.333-2.343-0.501-3.918-0.501-3.918l0.466-0.113c0,0,0.721,1.44,1.724,3.622
			c0.494,1.09,1.077,2.363,1.666,3.733c0.613,1.366,1.196,2.839,1.803,4.309c0.581,1.474,1.421,2.886,1.87,4.292
			c0.43,1.411,0.551,2.793,0.585,3.997c0.015,0.604-0.006,1.162-0.054,1.668c-0.045,0.503-0.103,0.946-0.175,1.317
			c-0.135,0.74-0.298,1.184-0.298,1.184L92.85,28.799z"/>
		<path d="M91.603,29.21c0,0-0.411-0.278-0.991-0.814c-0.294-0.267-0.622-0.6-0.976-0.988c-0.359-0.387-0.729-0.834-1.098-1.338
			c-0.733-1.004-1.509-2.199-2.049-3.578c-0.52-1.385-0.723-2.979-1.178-4.489c-0.432-1.52-0.885-3.029-1.247-4.468
			c-0.384-1.43-0.711-2.774-0.996-3.926C82.51,7.3,82.193,5.745,82.193,5.745l0.453-0.149c0,0,0.857,1.377,2.065,3.47
			c0.597,1.047,1.299,2.27,2.019,3.588c0.742,1.312,1.464,2.733,2.208,4.149c0.721,1.423,1.694,2.762,2.276,4.127
			c0.563,1.372,0.816,2.739,0.965,3.937c0.074,0.599,0.106,1.158,0.107,1.664c0.003,0.505-0.011,0.952-0.047,1.327
			c-0.063,0.748-0.183,1.202-0.183,1.202L91.603,29.21z"/>
		<path d="M90.399,29.718c0,0-0.437-0.244-1.065-0.732c-0.319-0.242-0.677-0.548-1.067-0.906c-0.395-0.357-0.807-0.774-1.223-1.247
			c-0.826-0.941-1.714-2.071-2.385-3.402c-0.651-1.339-1.006-2.911-1.605-4.378c-0.575-1.48-1.173-2.949-1.67-4.354
			c-0.52-1.394-0.975-2.707-1.369-3.832c-0.777-2.255-1.243-3.78-1.243-3.78l0.438-0.185c0,0,0.985,1.304,2.39,3.295
			c0.695,0.995,1.511,2.157,2.355,3.414c0.866,1.249,1.722,2.608,2.599,3.958c0.854,1.361,1.953,2.619,2.664,3.932
			c0.693,1.322,1.077,2.665,1.339,3.845c0.132,0.593,0.218,1.145,0.267,1.649c0.052,0.504,0.081,0.95,0.079,1.326
			c0.01,0.75-0.066,1.213-0.066,1.213L90.399,29.718z"/>
		<path d="M89.25,30.319c0,0-0.458-0.209-1.131-0.646c-0.341-0.217-0.727-0.492-1.15-0.819c-0.428-0.324-0.879-0.707-1.337-1.145
			c-0.914-0.872-1.906-1.928-2.703-3.201c-0.777-1.281-1.282-2.82-2.02-4.235c-0.714-1.429-1.451-2.843-2.082-4.204
			c-0.651-1.348-1.231-2.62-1.732-3.709c-0.99-2.186-1.601-3.667-1.601-3.667l0.418-0.22c0,0,1.107,1.222,2.698,3.094
			c0.788,0.936,1.713,2.029,2.674,3.215c0.982,1.174,1.965,2.461,2.969,3.737c0.981,1.289,2.196,2.454,3.031,3.706
			c0.817,1.264,1.328,2.57,1.704,3.725c0.188,0.58,0.327,1.123,0.424,1.623c0.1,0.497,0.171,0.939,0.206,1.313
			c0.082,0.747,0.051,1.214,0.051,1.214L89.25,30.319z"/>
		<path d="M88.162,31.009c0,0-0.477-0.172-1.189-0.553c-0.361-0.188-0.771-0.434-1.224-0.726c-0.458-0.29-0.943-0.636-1.443-1.034
			c-0.993-0.796-2.084-1.77-2.999-2.976c-0.897-1.215-1.548-2.708-2.419-4.058c-0.849-1.368-1.718-2.718-2.478-4.023
			c-0.778-1.292-1.478-2.514-2.081-3.558c-1.198-2.1-1.948-3.527-1.948-3.527l0.396-0.253c0,0,1.22,1.13,2.984,2.87
			c0.875,0.87,1.901,1.886,2.974,2.991c1.091,1.092,2.193,2.296,3.317,3.488c1.101,1.206,2.423,2.271,3.375,3.451
			c0.935,1.194,1.569,2.456,2.054,3.576c0.243,0.562,0.434,1.094,0.579,1.583c0.147,0.487,0.261,0.923,0.332,1.293
			c0.152,0.737,0.167,1.204,0.167,1.204L88.162,31.009z"/>
		<path d="M87.144,31.783c0,0-0.491-0.134-1.238-0.458c-0.377-0.159-0.81-0.37-1.289-0.625c-0.483-0.253-1.001-0.559-1.537-0.917
			c-1.066-0.715-2.247-1.598-3.273-2.727c-1.011-1.14-1.803-2.575-2.8-3.851c-0.978-1.295-1.973-2.571-2.854-3.812
			c-0.9-1.226-1.714-2.388-2.415-3.38c-1.395-1.997-2.28-3.359-2.28-3.359l0.369-0.284c0,0,1.325,1.03,3.249,2.624
			c0.955,0.797,2.076,1.728,3.249,2.745c1.192,1.001,2.407,2.113,3.639,3.213c1.214,1.113,2.633,2.069,3.694,3.171
			c1.046,1.115,1.801,2.321,2.391,3.4c0.296,0.54,0.537,1.055,0.729,1.531c0.194,0.472,0.349,0.897,0.455,1.261
			c0.222,0.722,0.282,1.187,0.282,1.187L87.144,31.783z"/>
		<path d="M86.205,32.634c0,0-0.502-0.095-1.278-0.357c-0.391-0.129-0.841-0.305-1.343-0.521c-0.507-0.214-1.052-0.479-1.62-0.792
			c-1.13-0.628-2.391-1.415-3.522-2.458c-1.117-1.056-2.043-2.423-3.159-3.614c-1.099-1.213-2.213-2.405-3.21-3.572
			c-1.014-1.15-1.937-2.242-2.729-3.176c-1.582-1.879-2.594-3.166-2.594-3.166l0.34-0.312c0,0,1.419,0.921,3.489,2.356
			c1.029,0.719,2.233,1.557,3.5,2.477c1.283,0.903,2.601,1.916,3.933,2.913c1.316,1.014,2.823,1.854,3.985,2.866
			c1.149,1.029,2.017,2.171,2.708,3.199c0.347,0.513,0.636,1.008,0.872,1.467c0.239,0.456,0.434,0.867,0.575,1.22
			c0.292,0.702,0.394,1.16,0.394,1.16L86.205,32.634z"/>
		<path d="M85.351,33.557c0,0-0.509-0.056-1.307-0.255c-0.402-0.098-0.868-0.238-1.388-0.413c-0.524-0.174-1.093-0.394-1.689-0.662
			c-1.187-0.535-2.517-1.218-3.745-2.168c-1.213-0.964-2.268-2.253-3.494-3.353c-1.211-1.12-2.435-2.221-3.542-3.304
			c-1.12-1.065-2.145-2.081-3.024-2.947c-1.757-1.748-2.888-2.949-2.888-2.949l0.31-0.338c0,0,1.502,0.806,3.701,2.071
			c1.094,0.635,2.375,1.376,3.725,2.19c1.366,0.799,2.775,1.703,4.198,2.593c1.409,0.904,2.99,1.622,4.245,2.54
			c1.245,0.933,2.219,2.001,3.006,2.973c0.395,0.482,0.73,0.953,1.009,1.391c0.282,0.435,0.515,0.83,0.69,1.171
			c0.357,0.676,0.504,1.124,0.504,1.124L85.351,33.557z"/>
		<path d="M99.049,28.28c0,0,0.319-0.366,0.726-1.02c0.208-0.326,0.43-0.726,0.661-1.184c0.235-0.459,0.467-0.979,0.679-1.55
			c0.422-1.142,0.831-2.479,0.959-3.938c0.107-1.46-0.151-3.048-0.142-4.614c-0.018-1.568-0.008-3.134-0.069-4.608
			c-0.038-1.472-0.104-2.848-0.159-4.026c-0.119-2.36-0.256-3.937-0.256-3.937l-0.481-0.038c0,0-0.436,1.532-1.004,3.836
			c-0.279,1.153-0.608,2.498-0.927,3.941c-0.342,1.441-0.634,2.985-0.95,4.527c-0.291,1.543-0.849,3.066-1.022,4.521
			c-0.153,1.457-0.006,2.839,0.19,4.029c0.1,0.597,0.228,1.144,0.372,1.634c0.141,0.487,0.282,0.915,0.426,1.27
			c0.274,0.707,0.518,1.118,0.518,1.118L99.049,28.28z"/>
		<path d="M100.357,28.488c0,0,0.352-0.34,0.82-0.958c0.238-0.309,0.497-0.688,0.771-1.127c0.278-0.439,0.559-0.938,0.824-1.489
			c0.529-1.105,1.066-2.405,1.334-3.849c0.247-1.446,0.143-3.047,0.302-4.606c0.134-1.564,0.292-3.123,0.374-4.596
			c0.104-1.469,0.168-2.846,0.228-4.024c0.107-2.361,0.124-3.943,0.124-3.943l-0.476-0.076c0,0-0.581,1.491-1.369,3.744
			c-0.388,1.126-0.845,2.439-1.302,3.852c-0.479,1.408-0.918,2.923-1.381,4.434c-0.438,1.516-1.14,2.988-1.452,4.424
			c-0.292,1.439-0.28,2.827-0.198,4.028c0.042,0.603,0.117,1.158,0.213,1.656c0.093,0.498,0.193,0.935,0.302,1.299
			c0.205,0.727,0.41,1.156,0.41,1.156L100.357,28.488z"/>
		<path d="M101.639,28.799c0,0,0.384-0.31,0.91-0.89c0.268-0.289,0.561-0.646,0.877-1.061c0.32-0.415,0.646-0.891,0.965-1.42
			c0.633-1.059,1.291-2.311,1.698-3.728c0.384-1.42,0.435-3.024,0.743-4.564c0.283-1.548,0.59-3.089,0.812-4.549
			c0.245-1.456,0.441-2.821,0.614-3.991c0.333-2.343,0.501-3.918,0.501-3.918l-0.466-0.113c0,0-0.722,1.44-1.724,3.622
			c-0.494,1.09-1.076,2.363-1.666,3.733c-0.613,1.366-1.197,2.839-1.803,4.309c-0.58,1.474-1.422,2.886-1.871,4.292
			c-0.429,1.411-0.55,2.793-0.583,3.997c-0.016,0.604,0.005,1.162,0.054,1.668c0.045,0.503,0.103,0.946,0.175,1.317
			c0.135,0.74,0.298,1.184,0.298,1.184L101.639,28.799z"/>
		<path d="M102.887,29.21c0,0,0.411-0.278,0.99-0.814c0.295-0.267,0.622-0.6,0.977-0.988c0.359-0.387,0.73-0.834,1.099-1.338
			c0.731-1.004,1.509-2.199,2.048-3.578c0.521-1.385,0.724-2.979,1.18-4.489c0.432-1.52,0.885-3.029,1.246-4.468
			c0.383-1.43,0.711-2.774,0.995-3.926c0.559-2.309,0.876-3.864,0.876-3.864l-0.453-0.149c0,0-0.857,1.377-2.064,3.47
			c-0.598,1.047-1.301,2.27-2.02,3.588c-0.742,1.312-1.464,2.733-2.209,4.149c-0.72,1.423-1.693,2.762-2.275,4.127
			c-0.564,1.372-0.816,2.739-0.966,3.937c-0.073,0.599-0.106,1.158-0.107,1.664c-0.003,0.505,0.011,0.952,0.048,1.327
			c0.064,0.748,0.184,1.202,0.184,1.202L102.887,29.21z"/>
		<path d="M104.09,29.718c0,0,0.437-0.244,1.065-0.732c0.318-0.242,0.677-0.548,1.067-0.906c0.395-0.357,0.807-0.774,1.223-1.247
			c0.826-0.941,1.714-2.071,2.385-3.402c0.65-1.339,1.006-2.911,1.605-4.378c0.574-1.48,1.172-2.949,1.67-4.354
			c0.52-1.394,0.975-2.707,1.369-3.832c0.776-2.255,1.244-3.78,1.244-3.78l-0.439-0.185c0,0-0.984,1.304-2.39,3.295
			c-0.694,0.995-1.511,2.157-2.354,3.414c-0.866,1.249-1.723,2.608-2.6,3.958c-0.854,1.361-1.952,2.619-2.664,3.932
			c-0.692,1.322-1.076,2.665-1.34,3.845c-0.131,0.593-0.217,1.145-0.267,1.649c-0.052,0.504-0.079,0.95-0.079,1.326
			c-0.01,0.75,0.066,1.213,0.066,1.213L104.09,29.718z"/>
		<path d="M105.24,30.319c0,0,0.458-0.209,1.131-0.646c0.342-0.217,0.727-0.492,1.15-0.819c0.428-0.324,0.879-0.707,1.338-1.145
			c0.914-0.872,1.906-1.928,2.701-3.201c0.778-1.281,1.283-2.82,2.021-4.235c0.715-1.429,1.45-2.843,2.082-4.204
			c0.65-1.348,1.23-2.62,1.73-3.709c0.992-2.186,1.603-3.667,1.603-3.667l-0.419-0.22c0,0-1.106,1.222-2.697,3.094
			c-0.787,0.936-1.713,2.029-2.674,3.215c-0.982,1.174-1.965,2.461-2.97,3.737c-0.981,1.289-2.196,2.454-3.03,3.706
			c-0.817,1.264-1.328,2.57-1.704,3.725c-0.188,0.58-0.327,1.123-0.425,1.623c-0.1,0.497-0.171,0.939-0.206,1.313
			c-0.081,0.747-0.05,1.214-0.05,1.214L105.24,30.319z"/>
		<path d="M106.328,31.009c0,0,0.476-0.172,1.188-0.553c0.361-0.188,0.771-0.434,1.226-0.726c0.457-0.29,0.942-0.636,1.441-1.034
			c0.994-0.796,2.084-1.77,2.999-2.976c0.897-1.215,1.548-2.708,2.419-4.058c0.85-1.368,1.719-2.718,2.479-4.023
			c0.779-1.292,1.479-2.514,2.081-3.558c1.198-2.1,1.948-3.527,1.948-3.527l-0.396-0.253c0,0-1.22,1.13-2.983,2.87
			c-0.875,0.87-1.901,1.886-2.974,2.991c-1.091,1.092-2.193,2.296-3.316,3.488c-1.102,1.206-2.424,2.271-3.375,3.451
			c-0.936,1.194-1.57,2.456-2.055,3.576c-0.244,0.562-0.434,1.094-0.579,1.583c-0.147,0.487-0.261,0.923-0.332,1.293
			c-0.153,0.737-0.167,1.204-0.167,1.204L106.328,31.009z"/>
		<path d="M107.346,31.783c0,0,0.49-0.134,1.237-0.458c0.378-0.159,0.81-0.37,1.289-0.625c0.483-0.253,1.001-0.559,1.536-0.917
			c1.066-0.715,2.247-1.598,3.273-2.727c1.012-1.14,1.803-2.575,2.801-3.851c0.977-1.295,1.973-2.571,2.854-3.812
			c0.899-1.226,1.714-2.388,2.415-3.38c1.395-1.997,2.279-3.359,2.279-3.359l-0.369-0.284c0,0-1.325,1.03-3.25,2.624
			c-0.955,0.797-2.074,1.728-3.248,2.745c-1.192,1.001-2.408,2.113-3.639,3.213c-1.214,1.113-2.634,2.069-3.695,3.171
			c-1.046,1.115-1.801,2.321-2.391,3.4c-0.296,0.54-0.535,1.055-0.728,1.531c-0.194,0.472-0.349,0.897-0.455,1.261
			c-0.224,0.722-0.282,1.187-0.282,1.187L107.346,31.783z"/>
		<path d="M108.285,32.634c0,0,0.502-0.095,1.276-0.357c0.392-0.129,0.843-0.305,1.343-0.521c0.508-0.214,1.052-0.479,1.621-0.792
			c1.13-0.628,2.391-1.415,3.521-2.458c1.117-1.056,2.043-2.423,3.16-3.614c1.098-1.213,2.212-2.405,3.209-3.572
			c1.014-1.15,1.938-2.242,2.73-3.176c1.582-1.879,2.593-3.166,2.593-3.166l-0.341-0.312c0,0-1.418,0.921-3.488,2.356
			c-1.027,0.719-2.232,1.557-3.5,2.477c-1.283,0.903-2.6,1.916-3.934,2.913c-1.315,1.014-2.822,1.854-3.984,2.866
			c-1.15,1.029-2.018,2.171-2.708,3.199c-0.347,0.513-0.636,1.008-0.872,1.467c-0.24,0.456-0.434,0.867-0.575,1.22
			c-0.291,0.702-0.394,1.16-0.394,1.16L108.285,32.634z"/>
		<path d="M109.139,33.557c0,0,0.51-0.056,1.307-0.255c0.402-0.098,0.868-0.238,1.389-0.413c0.523-0.174,1.092-0.394,1.689-0.662
			c1.186-0.535,2.518-1.218,3.744-2.168c1.214-0.964,2.269-2.253,3.494-3.353c1.211-1.12,2.436-2.221,3.541-3.304
			c1.121-1.065,2.146-2.081,3.025-2.947c1.756-1.748,2.887-2.949,2.887-2.949l-0.309-0.338c0,0-1.502,0.806-3.701,2.071
			c-1.094,0.635-2.375,1.376-3.726,2.19c-1.364,0.799-2.774,1.703-4.198,2.593c-1.408,0.904-2.989,1.622-4.244,2.54
			c-1.244,0.933-2.219,2.001-3.006,2.973c-0.395,0.482-0.73,0.953-1.01,1.391c-0.281,0.435-0.515,0.83-0.689,1.171
			c-0.357,0.676-0.504,1.124-0.504,1.124L109.139,33.557z"/>
	</g>
</g>
<path fill="#FFFFFF" d="M72.33,192.984c0,1.088,0.973,1.972,2.173,1.972H94.83c1.2,0,2.173-0.884,2.173-1.972v-6.812
	c0-1.089-0.973-1.973-2.173-1.973H74.503c-1.2,0-2.173,0.884-2.173,1.973V192.984z"/>
<path fill="#FFFFFF" d="M97.003,193.076c0,1.118,0.999,2.025,2.232,2.025h20.877c1.233,0,2.231-0.907,2.231-2.025v-6.997
	c0-1.118-0.998-2.025-2.231-2.025H99.235c-1.233,0-2.232,0.907-2.232,2.025V193.076z"/>
</svg>
