<?xml version="1.0" encoding="utf-8"?>
<!-- Generator: Adobe Illustrator 16.0.0, SVG Export Plug-In . SVG Version: 6.00 Build 0)  -->
<!DOCTYPE svg PUBLIC "-//W3C//DTD SVG 1.1//EN" "http://www.w3.org/Graphics/SVG/1.1/DTD/svg11.dtd">
<svg version="1.1" id="Layer_1" xmlns="http://www.w3.org/2000/svg" xmlns:xlink="http://www.w3.org/1999/xlink" x="0px" y="0px"
	 width="200px" height="200px" viewBox="0 0 300 200" enable-background="new 0 0 300 200" xml:space="preserve">
<path fill="#74377E" d="M73.388,89.729c0,2.618-1.969,4.74-4.399,4.74l0,0c-2.429,0-4.398-2.122-4.398-4.74V78.482
	c0-2.617,1.97-4.739,4.398-4.739l0,0c2.43,0,4.399,2.123,4.399,4.739V89.729z"/>
<path fill="#74377E" d="M90.163,89.729c0,2.618-1.97,4.74-4.398,4.74l0,0c-2.43,0-4.399-2.122-4.399-4.74V78.482
	c0-2.617,1.97-4.739,4.399-4.739l0,0c2.429,0,4.398,2.123,4.398,4.739V89.729z"/>
<path fill="#74377E" d="M106.938,89.729c0,2.618-1.969,4.74-4.398,4.74l0,0c-2.43,0-4.399-2.122-4.399-4.74V78.482
	c0-2.617,1.97-4.739,4.399-4.739l0,0c2.429,0,4.398,2.123,4.398,4.739V89.729z"/>
<path fill="#74377E" d="M123.714,89.729c0,2.618-1.97,4.74-4.399,4.74l0,0c-2.429,0-4.398-2.122-4.398-4.74V78.482
	c0-2.617,1.97-4.739,4.398-4.739l0,0c2.43,0,4.399,2.123,4.399,4.739V89.729z"/>
<g>
	<g>
		<path fill="#E31000" d="M169.766,85.868h-43.411c-0.872-0.104-1.753-0.167-2.652-0.167h-60.65c-0.897,0-1.78,0.063-2.652,0.167
			H26.947v9.702h17.365c-3.164,4.355-5.066,9.827-5.066,15.788v5.499c0,14.17,10.658,25.658,23.807,25.658h60.65
			c13.147,0,23.807-11.488,23.807-25.658v-5.499c0-5.961-1.903-11.433-5.066-15.788h27.323
			c28.364,9.282,55.829,28.665,55.829,28.665V90.72V57.204C225.595,57.204,198.13,76.586,169.766,85.868z M139.007,111.358v5.499
			c0,9.095-6.867,16.493-15.305,16.493h-60.65c-8.439,0-15.304-7.398-15.304-16.493v-5.499c0-7.439,4.597-13.74,10.887-15.788
			h69.484C134.41,97.618,139.007,103.919,139.007,111.358z"/>
		<path fill="#FBED21" d="M28.174,85.427H17.431c-0.996-0.817-2.227-1.322-3.576-1.322c-3.276,0-5.932,2.863-5.932,6.394
			c0,3.532,2.656,6.395,5.932,6.395c1.35,0,2.581-0.504,3.576-1.323h10.743V85.427z"/>
	</g>
	<path fill="#74377E" d="M232.954,123.577c0,2.92-2.196,5.289-4.906,5.289l0,0c-2.711,0-4.909-2.369-4.909-5.289V57.643
		c0-2.923,2.198-5.291,4.909-5.291l0,0c2.71,0,4.906,2.368,4.906,5.291V123.577z"/>
</g>
<polygon fill="#FBED21" points="246.661,86.026 292.077,90.609 246.661,95.19 "/>
<polyline fill="#FBED21" points="275.753,138.292 238.23,110.338 243.694,103.317 275.753,138.292 "/>
<polygon fill="#FBED21" points="238.753,70.675 276.278,42.72 244.219,77.695 "/>
</svg>
