<?xml version="1.0" encoding="utf-8"?>
<!-- Generator: Adobe Illustrator 16.0.0, SVG Export Plug-In . SVG Version: 6.00 Build 0)  -->
<!DOCTYPE svg PUBLIC "-//W3C//DTD SVG 1.1//EN" "http://www.w3.org/Graphics/SVG/1.1/DTD/svg11.dtd">
<svg version="1.1" id="Layer_1" xmlns="http://www.w3.org/2000/svg" xmlns:xlink="http://www.w3.org/1999/xlink" x="0px" y="0px"
	 width="250px" height="200px" viewBox="0 0 400 200" enable-background="new 0 0 400 200" xml:space="preserve">
<path fill="#FFFFFF" d="M107.844,29.189c1.869-1.874,2.999-4.303,2.999-6.957c0-5.933-5.632-10.741-12.579-10.741
	c-3.787,0-7.18,1.432-9.488,3.691c-1.382-4.65-6.316-8.088-12.192-8.088c-6.369,0-11.629,4.043-12.459,9.287
	c-2.197-1.596-5.04-2.562-8.148-2.562c-6.946,0-12.579,4.81-12.579,10.741c0,4.123,2.723,7.702,6.713,9.502
	c-1.022,1.554-1.608,3.344-1.608,5.254c0,5.934,5.633,10.741,12.579,10.741c3.157,0,6.039-0.993,8.247-2.633
	c1.769,4.103,6.386,7.03,11.807,7.03c5.808,0,10.693-3.362,12.141-7.929c2.235,1.736,5.207,2.797,8.468,2.797
	c6.946,0,12.579-4.807,12.579-10.741C114.323,34.542,111.706,31.021,107.844,29.189z"/>
<path fill="#FFFFFF" d="M278.382,75.652c1.406-1.41,2.257-3.237,2.257-5.234c0-4.465-4.239-8.083-9.466-8.083
	c-2.851,0-5.403,1.078-7.141,2.778c-1.04-3.499-4.752-6.087-9.175-6.087c-4.793,0-8.751,3.043-9.378,6.989
	c-1.652-1.201-3.791-1.927-6.132-1.927c-5.227,0-9.466,3.62-9.466,8.083c0,3.103,2.05,5.796,5.053,7.151
	c-0.769,1.169-1.211,2.516-1.211,3.953c0,4.465,4.239,8.083,9.466,8.083c2.376,0,4.546-0.747,6.207-1.981
	c1.332,3.088,4.806,5.291,8.885,5.291c4.371,0,8.047-2.529,9.138-5.966c1.682,1.306,3.917,2.104,6.372,2.104
	c5.229,0,9.467-3.618,9.467-8.083C283.258,79.681,281.289,77.032,278.382,75.652z"/>
<path fill="#FFFFFF" d="M125.984,180.26c1.406-1.41,2.257-3.238,2.257-5.234c0-4.465-4.239-8.083-9.466-8.083
	c-2.85,0-5.403,1.076-7.14,2.777c-1.04-3.499-4.752-6.087-9.175-6.087c-4.792,0-8.751,3.043-9.376,6.989
	c-1.653-1.201-3.792-1.928-6.132-1.928c-5.227,0-9.466,3.619-9.466,8.083c0,3.103,2.049,5.796,5.052,7.15
	c-0.769,1.169-1.211,2.516-1.211,3.954c0,4.464,4.239,8.083,9.466,8.083c2.375,0,4.545-0.748,6.206-1.981
	c1.332,3.088,4.806,5.29,8.885,5.29c4.371,0,8.047-2.529,9.137-5.967c1.682,1.306,3.917,2.104,6.373,2.104
	c5.228,0,9.467-3.617,9.467-8.083C130.86,184.288,128.891,181.639,125.984,180.26z"/>
<g>
	<path fill="#F6B344" d="M183.041,161.343c0,7.52-7.869,37.797-17.574,37.797c-9.709,0-17.579-30.276-17.579-37.797
		s7.87-13.618,17.579-13.618C175.171,147.725,183.041,153.822,183.041,161.343z"/>
	<path fill="#ED6245" d="M178.362,157.716c-0.001,5.519-5.773,27.734-12.896,27.734c-7.125,0-12.897-22.216-12.897-27.734
		c-0.001-5.518,5.771-9.991,12.897-9.991C172.588,147.725,178.361,152.198,178.362,157.716z"/>
	<path fill="#FFFFFF" d="M174.464,154.558c0,3.852-4.028,19.357-8.998,19.357c-4.973,0-9.002-15.506-9.002-19.357
		c-0.001-3.851,4.029-6.973,9.002-6.973C170.435,147.585,174.464,150.708,174.464,154.558z"/>
</g>
<path fill="#52A484" d="M128.721,92.842c-36.619,0-42.447,50.27-34.435,53.871c8.013,3.602,21.924-31.684,44.517-19.885
	C150.996,133.192,139.333,92.842,128.721,92.842z"/>
<path fill="#52A484" d="M200.126,92.842c36.618,0,42.446,50.27,34.432,53.871c-8.01,3.602-21.924-31.684-44.516-19.885
	C177.855,133.192,189.511,92.842,200.126,92.842z"/>
<path fill="#ED6245" d="M203.281,72.876c0,40.78-17.559,73.837-39.216,73.837c-21.654,0-39.21-33.057-39.21-73.837
	c0-40.778,31.622-73.835,39.21-73.836C171.658-0.96,203.281,32.098,203.281,72.876z"/>
<polygon fill="#52A484" points="183.041,159.674 147.624,159.674 152.05,139.154 179.248,139.154 "/>
<g>
	<ellipse fill="#403833" cx="163.145" cy="45.881" rx="17.691" ry="15.104"/>
	<path fill="#FFFFFF" d="M163.147,62.876c-10.976,0-19.906-7.624-19.905-16.995c0-9.372,8.93-16.997,19.905-16.997
		c10.973,0,19.903,7.624,19.903,16.996C183.05,55.251,174.121,62.876,163.147,62.876z M163.147,32.665
		c-8.536,0-15.479,5.929-15.478,13.217c-0.001,7.286,6.942,13.214,15.478,13.213c8.531,0.001,15.474-5.927,15.477-13.213
		C178.621,38.594,171.68,32.666,163.147,32.665z"/>
</g>
<g>
	<ellipse fill="#213228" cx="164.069" cy="83.874" rx="12.879" ry="10.996"/>
	<path fill="#403833" d="M164.066,96.759c-8.322,0-15.09-5.781-15.09-12.885c0-7.105,6.77-12.887,15.091-12.887
		c8.323,0,15.092,5.782,15.092,12.887C179.161,90.977,172.39,96.759,164.066,96.759z M164.067,74.766
		c-5.879,0.001-10.665,4.086-10.664,9.108c0,5.022,4.786,9.104,10.664,9.104c5.882,0,10.667-4.082,10.667-9.104
		C174.733,78.852,169.949,74.766,164.067,74.766z"/>
</g>
<path fill="none" d="M203.281,72.876c0,40.78-17.559,73.837-39.216,73.837c-21.654,0-39.21-33.057-39.21-73.837
	c0-40.778,31.622-73.835,39.21-73.836C171.658-0.96,203.281,32.098,203.281,72.876z"/>
<path fill="#ED6245" d="M156.082,116.161c-0.078-1.846,17.787-2.627,17.5,0c-0.292,2.625-3.837,37.421-8.752,37.421
	C159.919,153.582,156.158,118.006,156.082,116.161z"/>
</svg>
