<?xml version="1.0" encoding="utf-8"?>
<!-- Generator: Adobe Illustrator 16.0.0, SVG Export Plug-In . SVG Version: 6.00 Build 0)  -->
<!DOCTYPE svg PUBLIC "-//W3C//DTD SVG 1.1//EN" "http://www.w3.org/Graphics/SVG/1.1/DTD/svg11.dtd">
<svg version="1.1" id="Layer_1" xmlns="http://www.w3.org/2000/svg" xmlns:xlink="http://www.w3.org/1999/xlink" x="0px" y="0px"
	 width="80px" height="80px" viewBox="0 0 80 80" enable-background="new 0 0 80 80" xml:space="preserve">
<g>
	<path fill="#4EBA80" d="M39.922,21.115c-10.595,0-19.184,8.499-19.184,18.982c0,10.484,8.589,18.983,19.184,18.983
		s19.184-8.499,19.184-18.983C59.106,29.614,50.518,21.115,39.922,21.115z M39.922,55.969c-8.858,0-16.04-7.105-16.04-15.872
		c0-8.765,7.181-15.871,16.04-15.871c8.859,0,16.04,7.106,16.04,15.871C55.962,48.863,48.781,55.969,39.922,55.969z"/>
	<polygon fill="#4EBA80" points="34.915,48.68 29.907,40.097 34.915,31.515 44.93,31.515 49.938,40.097 44.93,48.68 	"/>
</g>
</svg>
