<?xml version="1.0" encoding="utf-8"?>
<!-- Generator: Adobe Illustrator 16.0.0, SVG Export Plug-In . SVG Version: 6.00 Build 0)  -->
<!DOCTYPE svg PUBLIC "-//W3C//DTD SVG 1.1//EN" "http://www.w3.org/Graphics/SVG/1.1/DTD/svg11.dtd">
<svg version="1.1" id="Layer_1" xmlns="http://www.w3.org/2000/svg" xmlns:xlink="http://www.w3.org/1999/xlink" x="0px" y="0px"
	 width="80px" height="80px" viewBox="0 0 80 80" enable-background="new 0 0 80 80" xml:space="preserve">
<g>
	
		<image overflow="visible" opacity="0.3" width="84" height="69" xlink:href="F5C4A5A41BECC1AA.png"  transform="matrix(1 0 0 1 -1.9395 8.5508)">
	</image>
	<g>
		<g>
			<g>
				<path fill="#FFFFFF" d="M11.478,71.116c-0.029,0-0.058-0.002-0.086-0.004c-0.673-0.082-1.224-1.076-1.283-2.317L9.236,50.759
					c-0.213,0.239-0.459,0.373-0.717,0.373l-6.393,0.011c-0.588,0-1.066-0.882-1.066-1.969c0-0.527,0.11-1.021,0.312-1.395
					c0.2-0.373,0.468-0.578,0.752-0.58l5.878-0.011l0.935-4.71c0.153-0.773,0.555-1.292,0.999-1.292
					c0.047,0,0.095,0.005,0.142,0.018c0.497,0.121,0.875,0.854,0.92,1.777l0.355,7.345l1.176-33.757
					c0.036-1.031,0.501-1.842,1.058-1.846c0.56,0,1.027,0.803,1.067,1.829l0.833,21.119l0.013-0.112
					c0.108-0.904,0.534-1.539,1.034-1.544c0.504,0,0.931,0.625,1.044,1.523l1.224,9.689l4.263-0.009l1.282-19.774
					c0.063-0.991,0.519-1.738,1.057-1.738c0.547,0.006,1,0.761,1.059,1.757l1.006,16.871l0.276-2.681
					c0.093-0.899,0.501-1.558,0.995-1.601c0.017-0.002,0.035-0.002,0.054-0.002c0.476,0,0.886,0.569,1.02,1.419l0.88,5.568
					l3.865-0.006c-0.22-0.376-0.439-0.753-0.654-1.137c-0.716-1.271-1.544-2.802-2.267-4.541c-0.83-1.985-1.363-3.891-1.63-5.82
					c-0.061-0.482-0.132-1.091-0.162-1.727c-0.028-0.544-0.035-1.103-0.021-1.698c0.026-1.161,0.128-2.284,0.302-3.333
					c0.17-1.059,0.422-2.098,0.748-3.08c0.314-0.948,0.702-1.831,1.156-2.626c0.466-0.806,0.968-1.474,1.496-1.993
					c0.515-0.519,1.087-0.924,1.696-1.198c0.105-0.052,0.209-0.087,0.301-0.121c0.042-0.014,0.078-0.028,0.116-0.042
					c0.027-0.011,0.055-0.019,0.083-0.027c0.033-0.008,0.069-0.017,0.104-0.028c0.106-0.031,0.212-0.061,0.331-0.08
					c0.117-0.024,0.261-0.051,0.426-0.062c0.085-0.01,0.172-0.016,0.273-0.016c0.043,0,0.181,0.002,0.181,0.002
					c0.015,0,0.032,0.002,0.051,0.005c0.352,0.039,0.647,0.12,0.957,0.264c0.288,0.132,0.598,0.33,0.896,0.572
					c0.721,0.589,1.44,1.467,2.188,2.668c0.207-0.369,0.413-0.712,0.623-1.033c0.535-0.815,1.034-1.427,1.526-1.871
					c0.612-0.566,1.244-0.901,1.869-0.99c0.155-0.021,0.309-0.031,0.462-0.031c0.452,0,0.921,0.086,1.394,0.254
					c1.24,0.451,2.384,1.487,3.308,2.998c0.933,1.506,1.638,3.468,2.034,5.668c0.191,1.044,0.312,2.17,0.359,3.337
					c0.047,1.241,0.001,2.385-0.142,3.499c-0.23,1.908-0.736,3.86-1.548,5.958c-0.707,1.818-1.505,3.416-2.191,4.738
					c-0.248,0.474-0.497,0.944-0.748,1.411l2.625-0.005l0.516-2.665c0.152-0.782,0.557-1.308,1.004-1.308
					c0.034,0,0.067,0.003,0.102,0.01c0.486,0.084,0.877,0.769,0.95,1.662l0.174,2.076l0.3-8.602c0.034-0.98,0.442-1.754,0.972-1.838
					c0.03-0.006,0.062-0.008,0.092-0.008c0.494,0,0.919,0.621,1.035,1.511l1.223,9.394l3.113-0.011l1.235-6.223
					c0.152-0.772,0.555-1.293,0.999-1.293c0.047,0,0.095,0.007,0.14,0.018c0.498,0.121,0.877,0.854,0.923,1.779l0.179,3.702
					l1.198-34.424c0.036-1.029,0.501-1.84,1.06-1.846c0.559,0,1.026,0.803,1.067,1.829l0.975,24.752
					c0.186-0.587,0.527-0.966,0.914-0.97c0.502,0,0.93,0.625,1.043,1.521l1.416,11.13h6.545c0.588,0,1.065,0.885,1.065,1.973
					s-0.478,1.973-1.065,1.973h-7.389c-0.497,0-0.924-0.625-1.038-1.52l-0.542-4.26l-0.418,3.489
					c-0.063,0.525-0.24,0.989-0.489,1.275c-0.173,0.2-0.371,0.305-0.576,0.305c-0.082,0-0.162-0.017-0.242-0.05
					c-0.47-0.197-0.82-0.96-0.847-1.854l-0.349-8.853l-1.027,29.491c-0.038,1.11-0.538,1.98-1.137,1.98l0,0
					c-0.026,0-0.053-0.002-0.08-0.005c-0.563-0.069-1.012-0.88-1.062-1.924l-0.913-18.866c-0.217,0.501-0.551,0.811-0.909,0.811
					l-4.546,0.016c-0.336,0-0.644-0.259-0.857-0.687l-0.437,12.514c-0.042,1.155-0.562,2.057-1.188,2.057
					c-0.022,0-0.046-0.002-0.067-0.004c-0.556-0.064-1.017-0.846-1.104-1.856l-1.025-12.319c-0.087,0.038-0.179,0.059-0.271,0.061
					l-5.585,0.01c-0.664,0-1.205-1-1.205-2.229c0-0.782,0.224-1.509,0.58-1.909l0.371-0.678c0.586-1.07,1.192-2.175,1.768-3.277
					c0.633-1.22,1.366-2.688,1.996-4.303c0.64-1.655,1.033-3.143,1.203-4.542c0.093-0.74,0.123-1.5,0.092-2.334
					c-0.034-0.828-0.119-1.624-0.255-2.36c-0.277-1.544-0.768-2.913-1.419-3.962c-0.646-1.055-1.443-1.775-2.31-2.091
					c-0.337-0.12-0.669-0.182-0.987-0.182c-0.102,0-0.205,0.007-0.304,0.02c-0.34,0.049-0.716,0.255-1.085,0.593
					c-0.351,0.317-0.703,0.754-1.111,1.377c-0.339,0.519-0.68,1.126-1.039,1.856c-0.233,0.471-0.563,0.742-0.909,0.742
					c-0.307,0-0.601-0.212-0.828-0.595c-0.013-0.02-0.027-0.046-0.041-0.072c-0.815-1.479-1.52-2.436-2.208-3
					c-0.188-0.152-0.379-0.275-0.552-0.355c-0.178-0.081-0.337-0.127-0.546-0.151c0,0-0.095-0.003-0.13-0.003
					c-0.046,0-0.092,0.002-0.139,0.008c-0.015,0.001-0.03,0.002-0.045,0.004c-0.096,0.005-0.199,0.025-0.308,0.046l-0.024,0.004
					c-0.052,0.008-0.109,0.027-0.17,0.044c-0.041,0.012-0.082,0.024-0.123,0.035c-0.038,0.013-0.075,0.027-0.113,0.041
					c-0.065,0.022-0.125,0.042-0.179,0.069l-0.012,0.007c-0.437,0.195-0.842,0.48-1.205,0.846c-0.37,0.364-0.72,0.83-1.043,1.39
					c-0.313,0.548-0.583,1.163-0.801,1.819c-0.229,0.688-0.404,1.411-0.523,2.153c-0.124,0.746-0.195,1.535-0.213,2.363
					c-0.01,0.413-0.005,0.796,0.014,1.174c0.015,0.315,0.048,0.664,0.109,1.143c0.189,1.367,0.599,2.797,1.248,4.352
					c0.638,1.533,1.396,2.936,2.054,4.103c0.63,1.116,1.299,2.229,1.947,3.306l0.161,0.27c0.396,0.407,0.646,1.182,0.646,2.028
					v0.082c0.001,0.617-0.129,1.2-0.366,1.64c-0.233,0.432-0.557,0.68-0.891,0.68c-0.109,0-0.218-0.026-0.323-0.079l-6.509,0.011
					c-0.396,0-0.76-0.347-0.996-0.901l-0.553,5.385c-0.114,1.109-0.64,1.915-1.25,1.915c-0.08,0-0.16-0.014-0.239-0.042
					c-0.553-0.196-0.966-1.022-1.027-2.058l-0.617-10.364l-0.268,4.119c-0.078,1.212-0.634,2.124-1.294,2.124l-5.65,0.01
					c-0.611,0-1.135-0.768-1.274-1.868l-0.308-2.44l-0.195,1.621c-0.134,1.112-0.678,1.916-1.292,1.918
					c-0.095,0-0.191-0.021-0.285-0.059c-0.565-0.231-0.989-1.139-1.033-2.207l-0.105-2.669l-0.81,23.268
					c-0.023,0.678-0.189,1.299-0.464,1.747C12.133,70.891,11.812,71.116,11.478,71.116z"/>
				<path fill="#FFFFFF" d="M11.478,69.956c-0.016,0-0.033,0-0.049-0.003c-0.365-0.044-0.664-0.586-0.696-1.261L9.675,46.836
					l-0.438,2.206c-0.11,0.556-0.399,0.929-0.719,0.931l-6.393,0.012l0,0c-0.242,0-0.438-0.364-0.438-0.811
					c0-0.45,0.196-0.814,0.438-0.814l6.314-0.012l1.086-5.468c0.07-0.358,0.264-0.576,0.469-0.526
					c0.204,0.05,0.361,0.354,0.379,0.732l1.082,22.354l1.699-48.797c0.015-0.426,0.205-0.758,0.436-0.76c0,0,0.002,0,0.002,0
					c0.229,0,0.42,0.329,0.437,0.752l1.143,29.003l0.94-7.829c0.044-0.369,0.221-0.634,0.426-0.635c0.001,0,0.001,0,0.002,0
					c0.204,0,0.381,0.259,0.427,0.627l1.336,10.586l5.317-0.01l1.348-20.796c0.026-0.408,0.213-0.715,0.435-0.715
					c0,0,0.001,0,0.002,0c0.223,0.003,0.41,0.312,0.434,0.723l1.464,24.556l1.056-10.275c0.039-0.37,0.208-0.642,0.41-0.66
					c0.209-0.021,0.386,0.224,0.443,0.583l1.011,6.407l5.954-0.011c-0.611-1.018-1.239-2.067-1.841-3.132
					c-0.699-1.241-1.506-2.734-2.204-4.411c-0.777-1.86-1.274-3.627-1.519-5.401c-0.055-0.432-0.119-0.979-0.144-1.538
					c-0.027-0.497-0.033-1.007-0.02-1.548c0.024-1.063,0.117-2.089,0.275-3.044c0.155-0.968,0.385-1.917,0.683-2.811
					c0.286-0.862,0.64-1.668,1.053-2.395c0.423-0.73,0.879-1.337,1.359-1.809c0.473-0.478,0.999-0.848,1.556-1.097
					c0.087-0.043,0.179-0.076,0.268-0.108c0.042-0.015,0.084-0.029,0.125-0.045c0.011-0.004,0.022-0.008,0.033-0.01
					c0.044-0.012,0.087-0.024,0.131-0.037c0.088-0.026,0.179-0.052,0.276-0.068c0.125-0.023,0.258-0.049,0.405-0.059
					c0.136-0.018,0.254-0.015,0.369-0.012l0.045,0.001c0.007,0,0.014,0,0.021,0.001c0.312,0.035,0.572,0.105,0.843,0.232
					c0.254,0.116,0.53,0.292,0.796,0.509c1.012,0.828,1.863,2.16,2.461,3.213c0.339-0.661,0.667-1.235,1.001-1.746
					c0.496-0.755,0.954-1.319,1.402-1.722c0.544-0.502,1.098-0.797,1.644-0.876c0.54-0.071,1.106,0,1.687,0.205
					c1.13,0.411,2.172,1.354,3.013,2.729c0.851,1.374,1.492,3.161,1.854,5.166c0.175,0.957,0.287,1.986,0.33,3.056
					c0.042,1.121,0,2.15-0.126,3.148c-0.216,1.763-0.688,3.58-1.449,5.549c-0.684,1.758-1.462,3.316-2.134,4.61
					c-0.593,1.136-1.209,2.261-1.806,3.349l-0.015,0.027l4.592-0.007l0.663-3.435c0.069-0.35,0.257-0.57,0.456-0.536
					c0.199,0.037,0.36,0.319,0.391,0.687l1.049,12.588l0.669-19.215c0.015-0.4,0.186-0.722,0.399-0.757
					c0.216-0.036,0.414,0.228,0.466,0.617l1.337,10.286l4.044-0.017l1.386-6.98c0.072-0.355,0.265-0.574,0.471-0.524
					c0.203,0.05,0.36,0.354,0.38,0.731l0.903,18.714l1.723-49.464c0.015-0.426,0.206-0.759,0.438-0.76c0.001,0,0.001,0,0.002,0
					c0.229,0,0.42,0.329,0.437,0.753l1.274,32.305l0.817-6.813c0.044-0.369,0.22-0.633,0.427-0.636c0,0,0,0,0.001,0
					c0.204,0,0.381,0.259,0.428,0.627l1.53,12.025h7.041c0.243,0,0.438,0.364,0.438,0.812c0,0.449-0.195,0.812-0.438,0.812h-7.389
					c-0.205,0-0.381-0.26-0.428-0.627l-1.169-9.196l-1.013,8.442c-0.028,0.222-0.103,0.421-0.209,0.542
					c-0.103,0.118-0.228,0.159-0.348,0.108c-0.201-0.084-0.349-0.407-0.36-0.788l-1.013-25.709l-1.614,46.339
					c-0.019,0.524-0.263,0.929-0.547,0.893c-0.259-0.032-0.46-0.397-0.482-0.869l-1.149-23.761l-0.794,3.998
					c-0.076,0.388-0.278,0.649-0.503,0.649l-4.549,0.017c-0.25,0-0.467-0.314-0.525-0.765l-0.722-5.55l-0.668,19.228
					c-0.021,0.571-0.294,1-0.596,0.968c-0.261-0.03-0.479-0.399-0.52-0.876l-1.228-14.738l-0.153,0.794
					c-0.081,0.419-0.297,0.7-0.538,0.703l-5.583,0.009c-0.319,0-0.578-0.479-0.578-1.069c0-0.413,0.129-0.795,0.332-0.97
					l0.421-0.771c0.593-1.08,1.206-2.196,1.79-3.316c0.65-1.251,1.401-2.758,2.053-4.431c0.691-1.786,1.118-3.41,1.307-4.966
					c0.107-0.846,0.14-1.717,0.105-2.669c-0.036-0.928-0.135-1.822-0.287-2.653c-0.312-1.735-0.864-3.277-1.6-4.464
					c-0.728-1.188-1.625-2-2.601-2.355c-0.504-0.179-0.994-0.24-1.455-0.18c-0.425,0.061-0.88,0.308-1.32,0.714
					c-0.393,0.354-0.784,0.836-1.23,1.518c-0.365,0.558-0.726,1.202-1.104,1.971c-0.225,0.454-0.606,0.486-0.853,0.072
					c-0.005-0.01-0.012-0.021-0.017-0.032c-0.878-1.591-1.641-2.622-2.401-3.244c-0.221-0.18-0.447-0.325-0.655-0.42
					c-0.217-0.1-0.419-0.156-0.673-0.185l-0.035-0.001c-0.108-0.003-0.201-0.004-0.304,0.009c-0.006,0.001-0.012,0.001-0.018,0.002
					c-0.118,0.007-0.233,0.028-0.355,0.052c-0.003,0-0.01,0.001-0.013,0.002c-0.066,0.009-0.138,0.031-0.214,0.052
					c-0.044,0.014-0.089,0.027-0.134,0.038c-0.042,0.017-0.084,0.032-0.126,0.046c-0.078,0.028-0.151,0.055-0.219,0.087
					c-0.492,0.221-0.945,0.542-1.356,0.954c-0.415,0.408-0.808,0.932-1.172,1.562c-0.355,0.625-0.661,1.319-0.907,2.061
					c-0.257,0.773-0.456,1.591-0.591,2.431c-0.138,0.831-0.217,1.718-0.239,2.642c-0.011,0.467-0.004,0.903,0.018,1.334
					c0.016,0.364,0.054,0.762,0.122,1.298c0.213,1.539,0.659,3.113,1.362,4.796c0.663,1.594,1.441,3.032,2.115,4.229
					c0.639,1.128,1.312,2.249,1.962,3.332l0.223,0.372c0.224,0.181,0.376,0.595,0.376,1.062v0.082c0,0.308-0.064,0.6-0.183,0.82
					c-0.174,0.322-0.444,0.428-0.673,0.261l-6.607,0.012c-0.28,0-0.53-0.348-0.609-0.844l-0.551-3.493L27.88,55.25
					c-0.066,0.647-0.405,1.074-0.755,0.951c-0.281-0.1-0.491-0.52-0.522-1.045l-1.215-20.378l-0.916,14.123
					c-0.04,0.627-0.329,1.101-0.671,1.101l-5.65,0.01c-0.318,0-0.591-0.399-0.664-0.974l-0.933-7.396l-0.792,6.591
					c-0.083,0.693-0.456,1.13-0.829,0.978c-0.297-0.121-0.52-0.598-0.543-1.16l-0.769-19.506L12.223,68.66
					c-0.012,0.369-0.102,0.707-0.252,0.952C11.833,69.836,11.66,69.956,11.478,69.956z"/>
			</g>
		</g>
	</g>
</g>
</svg>
