<?xml version="1.0" encoding="utf-8"?>
<!-- Generator: Adobe Illustrator 16.0.0, SVG Export Plug-In . SVG Version: 6.00 Build 0)  -->
<!DOCTYPE svg PUBLIC "-//W3C//DTD SVG 1.1//EN" "http://www.w3.org/Graphics/SVG/1.1/DTD/svg11.dtd">
<svg version="1.1" id="Layer_1" xmlns="http://www.w3.org/2000/svg" xmlns:xlink="http://www.w3.org/1999/xlink" x="0px" y="0px"
	 width="200px" height="200px" viewBox="0 0 200 200" enable-background="new 0 0 200 200" xml:space="preserve">
<g>
	<path fill="#D8CDC1" d="M126.399,178.169c0,2.79-2.259,5.046-5.046,5.046H47.091c-2.787,0-5.046-2.256-5.046-5.046v-74.571
		c0-2.787,2.259-5.047,5.046-5.047h74.263c2.787,0,5.046,2.26,5.046,5.047V178.169z"/>
	<path fill="#FA496A" d="M121.479,173.123c0,2.789-2.259,5.046-5.045,5.046H51.956c-2.787,0-5.047-2.257-5.047-5.046v-63.951
		c0-2.785,2.26-5.046,5.047-5.046h64.479c2.786,0,5.045,2.261,5.045,5.046V173.123z"/>
	<circle fill="#1B203D" cx="84.574" cy="141.504" r="32.881"/>
	<circle fill="#FFE9D5" cx="84.573" cy="141.504" r="13.396"/>
	<circle fill="#934E39" cx="84.573" cy="141.504" r="2.463"/>
	<path fill="#823242" d="M144.339,18.443c0,0-133.297,39.985-90.42,95.529c0,0,4.221-60.426,90.42-11.774"/>
	<path fill="#D8CDC1" d="M72.001,116.459c0-5.647-4.579-10.227-10.227-10.227c-5.649,0-10.229,4.579-10.229,10.227
		c0,4.615,3.06,8.516,7.26,9.787l2.969,5.945l2.967-5.945C68.942,124.975,72.001,121.074,72.001,116.459z"/>
	<g>
		<circle fill="#1B203D" cx="144.339" cy="60.875" r="44.654"/>
	</g>
	<path fill="#FFE9D5" d="M148.484,56.728c7.022,14.302,2.827,30.751-9.37,36.741c-12.196,5.989-27.777-0.749-34.8-15.052
		c-7.022-14.302-2.827-30.751,9.369-36.741C125.882,35.688,141.462,42.425,148.484,56.728z"/>
	<path fill="#D8CDC1" d="M144.339,22.95c20.912,0,37.926,17.015,37.926,37.925c0,20.914-17.014,37.925-37.926,37.925
		s-37.925-17.011-37.925-37.925C106.414,39.965,123.427,22.95,144.339,22.95 M144.339,16.222c-24.66,0-44.653,19.993-44.653,44.653
		c0,24.663,19.993,44.654,44.653,44.654c24.662,0,44.654-19.991,44.654-44.654C188.993,36.215,169.001,16.222,144.339,16.222
		L144.339,16.222z"/>
	<circle fill="#823242" cx="61.773" cy="116.459" r="6.698"/>
</g>
</svg>
