<?xml version="1.0" encoding="utf-8"?>
<!-- Generator: Adobe Illustrator 16.0.0, SVG Export Plug-In . SVG Version: 6.00 Build 0)  -->
<!DOCTYPE svg PUBLIC "-//W3C//DTD SVG 1.1//EN" "http://www.w3.org/Graphics/SVG/1.1/DTD/svg11.dtd">
<svg version="1.1" id="Layer_1" xmlns="http://www.w3.org/2000/svg" xmlns:xlink="http://www.w3.org/1999/xlink" x="0px" y="0px"
	 width="300px" height="200px" viewBox="0 0 400 200" enable-background="new 0 0 400 200" xml:space="preserve">
<g>
	<g>
		<rect x="82" y="-0.769" fill="#FFFFFF" width="201.414" height="199.229"/>
		<g>
			<defs>
				<rect id="SVGID_1_" x="82" y="-0.769" width="201.414" height="199.229"/>
			</defs>
			<clipPath id="SVGID_2_">
				<use xlink:href="#SVGID_1_"  overflow="visible"/>
			</clipPath>
			<g clip-path="url(#SVGID_2_)">
				<g>
					<rect x="100.548" y="-0.769" fill="#F1E4C4" width="1.621" height="199.229"/>
					<rect x="133.414" y="-0.769" fill="#F1E4C4" width="1.622" height="199.229"/>
					<rect x="166.28" y="-0.769" fill="#F1E4C4" width="1.622" height="199.229"/>
					<rect x="199.146" y="-0.769" fill="#F1E4C4" width="1.622" height="199.229"/>
					<rect x="232.013" y="-0.769" fill="#F1E4C4" width="1.621" height="199.229"/>
					<rect x="264.878" y="-0.769" fill="#F1E4C4" width="1.622" height="199.229"/>
				</g>
				<g>
					<rect x="111.053" y="-0.83" fill="#F1E4C4" width="0.608" height="199.232"/>
					<rect x="143.919" y="-0.83" fill="#F1E4C4" width="0.608" height="199.232"/>
					<rect x="176.786" y="-0.83" fill="#F1E4C4" width="0.608" height="199.232"/>
					<rect x="209.652" y="-0.83" fill="#F1E4C4" width="0.607" height="199.232"/>
					<rect x="242.519" y="-0.83" fill="#F1E4C4" width="0.607" height="199.232"/>
					<rect x="275.384" y="-0.83" fill="#F1E4C4" width="0.608" height="199.232"/>
				</g>
				<g>
					<rect x="122.133" y="-0.83" fill="#F1E4C4" width="0.608" height="199.232"/>
					<rect x="154.999" y="-0.83" fill="#F1E4C4" width="0.608" height="199.232"/>
					<rect x="187.865" y="-0.83" fill="#F1E4C4" width="0.608" height="199.232"/>
					<rect x="220.731" y="-0.83" fill="#F1E4C4" width="0.607" height="199.232"/>
					<rect x="253.597" y="-0.83" fill="#F1E4C4" width="0.608" height="199.232"/>
					<rect x="91.056" y="-0.098" fill="#F1E4C4" width="0.608" height="199.232"/>
				</g>
				<g>
					<rect x="81.189" y="22" fill="#F1E4C4" width="202.271" height="1.342"/>
					<rect x="81.189" y="49.194" fill="#F1E4C4" width="202.271" height="1.342"/>
					<rect x="81.189" y="76.389" fill="#F1E4C4" width="202.271" height="1.342"/>
					<rect x="81.189" y="103.584" fill="#F1E4C4" width="202.271" height="1.342"/>
					<rect x="81.189" y="130.778" fill="#F1E4C4" width="202.271" height="1.343"/>
					<rect x="81.189" y="157.973" fill="#F1E4C4" width="202.271" height="1.342"/>
				</g>
				<g>
					<rect x="82" y="186.042" fill="#F1E4C4" width="202.271" height="1.342"/>
				</g>
				<g>
					<rect x="77.208" y="5.042" fill="#F1E4C4" width="240.78" height="0.503"/>
					<rect x="78.831" y="32.236" fill="#F1E4C4" width="240.78" height="0.503"/>
					<rect x="78.831" y="59.431" fill="#F1E4C4" width="240.78" height="0.503"/>
					<rect x="78.831" y="86.626" fill="#F1E4C4" width="240.78" height="0.503"/>
					<rect x="76.398" y="113.82" fill="#F1E4C4" width="240.779" height="0.504"/>
					<rect x="78.831" y="141.016" fill="#F1E4C4" width="240.78" height="0.503"/>
					<rect x="77.135" y="149.712" fill="#F1E4C4" width="240.781" height="0.505"/>
					<rect x="82.002" y="168.497" fill="#F1E4C4" width="201.592" height="0.502"/>
					
						<rect x="82.002" y="177.199" transform="matrix(1 0.0024 -0.0024 1 0.4282 -0.4383)" fill="#F1E4C4" width="200.161" height="0.502"/>
				</g>
				<g>
					<rect x="82.883" y="14.209" fill="#F1E4C4" width="240.78" height="0.503"/>
					<rect x="82.883" y="41.404" fill="#F1E4C4" width="240.78" height="0.503"/>
					<rect x="82.883" y="68.599" fill="#F1E4C4" width="240.78" height="0.503"/>
					<rect x="82.883" y="95.793" fill="#F1E4C4" width="240.78" height="0.504"/>
					<rect x="82.883" y="122.988" fill="#F1E4C4" width="240.78" height="0.504"/>
				</g>
			</g>
		</g>
	</g>
	<g>
		<path fill="#414042" d="M123.942,144.987c-0.514,0-1.017-0.101-1.516-0.318c-3.9-1.699-4.06-11.312-1.961-19.625
			c1.632-6.466,8.721-27.674,31.375-29.039l0.125,1.429c-21.446,1.292-28.237,21.684-29.807,27.903
			c-2.358,9.344-1.327,17.019,1.074,18.065c2.048,0.889,5.543-2.671,9.246-6.439c7.012-7.139,16.614-16.918,29.289-11.895
			l-0.748,1.293c-11.444-4.537-20.178,4.358-27.198,11.506C129.982,141.775,126.828,144.987,123.942,144.987z"/>
		<path fill="#414042" d="M249.031,144.987c-2.886,0-6.039-3.211-9.879-7.12c-7.201-7.332-16.165-16.457-28.006-11.166l-0.823-1.26
			c13.101-5.855,22.969,4.188,30.173,11.522c3.702,3.77,7.205,7.329,9.244,6.438c2.203-0.959,3.618-8.522,0.921-18.657
			c-1.647-6.185-8.696-26.434-30.272-27.343l0.088-1.43c22.801,0.96,30.162,22.03,31.875,28.465
			c2.28,8.566,2.229,18.477-1.805,20.232C250.049,144.887,249.545,144.987,249.031,144.987z"/>
		<path fill="#414042" d="M186.162,144.753c-20.101,0-36.454-29.455-36.454-65.659c0-20.764,9.601-37.903,15.324-46.272
			c7.432-10.869,16.714-19.384,21.129-19.384c4.418,0,13.701,8.514,21.135,19.384c5.722,8.369,15.323,25.508,15.323,46.272
			C222.62,115.298,206.266,144.753,186.162,144.753z M186.162,14.87c-5.577,0-34.723,27.401-34.723,64.224
			c0,35.414,15.578,64.225,34.723,64.225c19.148,0,34.728-28.811,34.728-64.225C220.89,42.27,191.74,14.87,186.162,14.87z"/>
		<polygon fill="#414042" points="204.397,156.151 170.201,156.151 173.71,140.375 175.414,140.634 172.28,154.719 202.372,154.719 
			199.353,138.894 201.062,138.67 		"/>
		<g>
			<path fill="#414042" d="M185.329,69.352c-9.333,0-16.924-6.281-16.924-14c0-7.721,7.592-14.002,16.924-14.003
				c9.33,0,16.919,6.282,16.919,14.003C202.248,63.07,194.658,69.352,185.329,69.352z M185.329,42.781
				c-8.378,0.001-15.194,5.64-15.194,12.571c0,6.931,6.815,12.568,15.194,12.568c8.375,0,15.188-5.638,15.188-12.569
				C200.517,48.419,193.703,42.781,185.329,42.781z"/>
		</g>
		<g>
			<path fill="#414042" d="M186.166,99.154c-6.923,0-12.555-4.66-12.555-10.388s5.632-10.389,12.554-10.389
				c6.923,0.001,12.556,4.662,12.556,10.389C198.72,94.494,193.088,99.154,186.166,99.154z M186.164,79.81
				c-5.967,0-10.822,4.018-10.822,8.957c0,4.938,4.855,8.956,10.822,8.956h0.001c5.968,0,10.822-4.018,10.822-8.956
				C196.988,83.829,192.133,79.811,186.164,79.81z"/>
		</g>
		<g>
			<defs>
				<path id="SVGID_3_" d="M186.162,144.394c-19.862,0-36.021-29.294-36.021-65.3c0-35.963,28.962-65.298,36.021-65.298
					c7.062,0,36.025,29.334,36.025,65.298C222.188,115.1,206.027,144.394,186.162,144.394z M186.162,14.511
					c-2.983,0-11.594,6.547-20,18.839c-5.66,8.277-15.155,25.227-15.155,45.744c0,35.61,15.771,64.584,35.155,64.584
					c19.387,0,35.159-28.974,35.159-64.584c0-20.518-9.495-37.467-15.155-45.744C197.76,21.059,189.148,14.511,186.162,14.511z"/>
			</defs>
			<use xlink:href="#SVGID_3_"  overflow="visible" fill="#414042"/>
			<clipPath id="SVGID_4_">
				<use xlink:href="#SVGID_3_"  overflow="visible"/>
			</clipPath>
			<path clip-path="url(#SVGID_4_)" fill="#414042" d="M187.312,171.103c-35.61,0-64.583-15.13-64.583-33.728
				c0-17.517,7.823-33.726,64.577-33.726c56.764,0,64.59,16.209,64.591,33.726C251.896,155.972,222.924,171.103,187.312,171.103z
				 M187.312,105.081c-52.164,0-62.852,12.911-62.852,32.294c0,17.808,28.195,32.294,62.852,32.294
				c34.657,0,62.854-14.486,62.854-32.294C250.164,117.992,239.475,105.081,187.312,105.081z"/>
			<path clip-path="url(#SVGID_4_)" fill="#414042" d="M186.162,31.243c-35.609,0-64.58-15.131-64.58-33.728
				c0-17.517,7.824-33.727,64.58-33.727c56.759,0,64.584,16.209,64.585,33.727C250.746,16.112,221.773,31.243,186.162,31.243z
				 M186.162-34.78c-52.16,0-62.848,12.911-62.848,32.295c0,17.808,28.194,32.295,62.848,32.295
				c34.657,0,62.852-14.487,62.853-32.295C249.014-21.869,238.325-34.78,186.162-34.78z"/>
		</g>
		<path fill="#414042" d="M186.855,150.793c-1.155,0-3.562,0-6.471-16.46c-1.403-7.929-2.296-16.264-2.333-17.144
			c-0.01-0.203,0.052-0.508,0.396-0.801c1.315-1.128,6.795-1.426,9.507-1.426c2.694,0,6.142,0.216,7.273,1.243
			c0.326,0.296,0.476,0.65,0.433,1.025l-0.047,0.424C191.921,150.793,188.109,150.793,186.855,150.793z M179.793,117.316
			c0.112,1.459,0.953,9.082,2.243,16.462c2.537,14.518,4.553,15.513,4.821,15.582c1.241-0.256,4.29-7.221,7.033-31.838l0.041-0.368
			c-0.301-0.266-2.057-0.76-5.977-0.76C183.85,116.395,180.534,116.919,179.793,117.316z"/>
		<g>
			<defs>
				<path id="SVGID_5_" d="M186.162,144.394c-19.862,0-36.021-29.294-36.021-65.3c0-35.963,28.962-65.298,36.021-65.298
					c7.062,0,36.025,29.334,36.025,65.298C222.188,115.1,206.027,144.394,186.162,144.394z M186.162,14.511
					c-2.983,0-11.594,6.547-20,18.839c-5.66,8.277-15.155,25.227-15.155,45.744c0,35.61,15.771,64.584,35.155,64.584
					c19.387,0,35.159-28.974,35.159-64.584c0-20.518-9.495-37.467-15.155-45.744C197.76,21.059,189.148,14.511,186.162,14.511z"/>
			</defs>
			<use xlink:href="#SVGID_5_"  overflow="visible" fill="#414042"/>
			<clipPath id="SVGID_6_">
				<use xlink:href="#SVGID_5_"  overflow="visible"/>
			</clipPath>
			<path clip-path="url(#SVGID_6_)" fill="#414042" d="M187.312,171.103c-35.61,0-64.583-15.13-64.583-33.728
				c0-17.517,7.823-33.726,64.577-33.726c56.764,0,64.59,16.209,64.591,33.726C251.896,155.972,222.924,171.103,187.312,171.103z
				 M187.312,105.081c-52.164,0-62.852,12.911-62.852,32.294c0,17.808,28.195,32.294,62.852,32.294
				c34.657,0,62.854-14.486,62.854-32.294C250.164,117.992,239.475,105.081,187.312,105.081z"/>
			<path clip-path="url(#SVGID_6_)" fill="#414042" d="M186.162,31.243c-35.609,0-64.58-15.131-64.58-33.728
				c0-17.517,7.824-33.727,64.58-33.727c56.759,0,64.584,16.209,64.585,33.727C250.746,16.112,221.773,31.243,186.162,31.243z
				 M186.162-34.78c-52.16,0-62.848,12.911-62.848,32.295c0,17.808,28.194,32.295,62.848,32.295
				c34.657,0,62.852-14.487,62.853-32.295C249.014-21.869,238.325-34.78,186.162-34.78z"/>
		</g>
	</g>
	<g>
		<rect x="93.188" y="162.495" fill="#5FBD97" width="158.912" height="23.227"/>
		<g>
			<rect x="113.45" y="176.021" fill="#403833" width="2.943" height="9.701"/>
			<rect x="136.54" y="176.021" fill="#403833" width="2.941" height="9.701"/>
			<rect x="159.628" y="176.021" fill="#403833" width="2.943" height="9.701"/>
			<rect x="182.718" y="176.021" fill="#403833" width="2.941" height="9.701"/>
			<rect x="205.807" y="176.021" fill="#403833" width="2.942" height="9.701"/>
			<rect x="228.895" y="176.021" fill="#403833" width="2.943" height="9.701"/>
		</g>
	</g>
	<g>
		<rect x="291.264" y="70.211" fill="#F6B344" width="16.555" height="118.744"/>
		<rect x="291.264" y="188.955" fill="#F1E4C4" width="16.555" height="9.708"/>
		<polygon fill="#213228" points="299.541,55.35 295.87,61.94 303.211,61.94 		"/>
		<polygon fill="#F1E4C4" points="295.87,61.94 291.264,70.211 307.818,70.211 303.211,61.94 		"/>
	</g>
</g>
</svg>
